<svg xmlns="http://www.w3.org/2000/svg" width="1572" height="1001" viewBox="0 0 1572 1001">
<style>
.bg{fill:#eef3f6;}
.card{fill:#ffffff;stroke:#2f4558;stroke-width:3;}
.soft{filter:url(#shadow);}
.label{font-family:Arial, Helvetica, sans-serif;fill:#243647;font-size:36px;font-weight:700;}
.text{font-family:Arial, Helvetica, sans-serif;fill:#243647;font-size:28px;}
.small{font-family:Arial, Helvetica, sans-serif;fill:#5b6f83;font-size:22px;}
.tiny{font-family:Arial, Helvetica, sans-serif;fill:#5b6f83;font-size:18px;}
</style>
<defs>
<filter id="shadow" x="-20%" y="-20%" width="140%" height="140%"><feDropShadow dx="0" dy="10" stdDeviation="12" flood-color="#385060" flood-opacity="0.18"/></filter>
<marker id="arrow" markerWidth="16" markerHeight="16" refX="14" refY="8" orient="auto" markerUnits="strokeWidth"><path d="M0,0 L16,8 L0,16 z" fill="#2f4558"/></marker>
</defs>
<rect class="bg" width="1572" height="1001"/>
<rect class="card soft" x="90" y="170" width="390" height="560" rx="28"/><text class="label" x="285" y="230" text-anchor="middle"><tspan x="285" dy="0">Formular</tspan></text><rect x="150" y="285" width="270" height="40" rx="12" fill="#e6f1f7" stroke="#2f4558" stroke-width="2"/><text class="small" x="285" y="313" text-anchor="middle">AOI</text><rect x="150" y="355" width="270" height="40" rx="12" fill="#e6f1f7" stroke="#2f4558" stroke-width="2"/><text class="small" x="285" y="383" text-anchor="middle">Zeitraum</text><rect x="150" y="425" width="270" height="40" rx="12" fill="#e6f1f7" stroke="#2f4558" stroke-width="2"/><text class="small" x="285" y="453" text-anchor="middle">Monate</text><rect x="150" y="495" width="270" height="40" rx="12" fill="#e6f1f7" stroke="#2f4558" stroke-width="2"/><text class="small" x="285" y="523" text-anchor="middle">Extremmodus</text><rect x="150" y="565" width="270" height="40" rx="12" fill="#e6f1f7" stroke="#2f4558" stroke-width="2"/><text class="small" x="285" y="593" text-anchor="middle">OSM / WMS</text><line x1="500" y1="450" x2="690" y2="450" stroke="#2f4558" stroke-width="9" marker-end="url(#arrow)"/><rect class="card soft" x="705" y="230" width="280" height="440" rx="28"/><text class="label" x="845" y="295" text-anchor="middle"><tspan x="845" dy="0">run_config.json</tspan></text><rect x="755" y="345" width="180" height="210" rx="18" fill="#263746"/><text class="tiny" x="845" y="390" text-anchor="middle">&quot;aoi_name&quot;</text><text class="tiny" x="845" y="432" text-anchor="middle">&quot;date_start&quot;</text><text class="tiny" x="845" y="474" text-anchor="middle">&quot;extreme_mode&quot;</text><text class="tiny" x="845" y="516" text-anchor="middle">&quot;load_osm&quot;</text><line x1="1005" y1="450" x2="1195" y2="450" stroke="#2f4558" stroke-width="9" marker-end="url(#arrow)"/><rect class="card soft" x="1210" y="170" width="270" height="560" rx="28"/><text class="label" x="1345" y="230" text-anchor="middle"><tspan x="1345" dy="0">R-Skript</tspan></text><rect x="1260" y="300" width="170" height="170" rx="20" fill="#f4f7f9" stroke="#2f4558" stroke-width="3"/><path d="M1290 370 h110 M1290 410 h75 M1290 450 h120" stroke="#4d8fc9" stroke-width="12" stroke-linecap="round"/><text class="small" x="1345" y="540" text-anchor="middle">lokal ausführen</text></svg>
