<svg xmlns="http://www.w3.org/2000/svg" width="1572" height="1001" viewBox="0 0 1572 1001">
<style>
.bg{fill:#eef3f6;}
.card{fill:#ffffff;stroke:#2f4558;stroke-width:3;}
.soft{filter:url(#shadow);}
.label{font-family:Arial, Helvetica, sans-serif;fill:#243647;font-size:36px;font-weight:700;}
.text{font-family:Arial, Helvetica, sans-serif;fill:#243647;font-size:28px;}
.small{font-family:Arial, Helvetica, sans-serif;fill:#5b6f83;font-size:22px;}
.tiny{font-family:Arial, Helvetica, sans-serif;fill:#5b6f83;font-size:18px;}
</style>
<defs>
<filter id="shadow" x="-20%" y="-20%" width="140%" height="140%"><feDropShadow dx="0" dy="10" stdDeviation="12" flood-color="#385060" flood-opacity="0.18"/></filter>
<marker id="arrow" markerWidth="16" markerHeight="16" refX="14" refY="8" orient="auto" markerUnits="strokeWidth"><path d="M0,0 L16,8 L0,16 z" fill="#2f4558"/></marker>
</defs>
<rect class="bg" width="1572" height="1001"/>
<rect class="card soft" x="95" y="180" width="280" height="520" rx="28"/><circle cx="145" cy="220" r="34" fill="#4d8fc9"/><text class="label" x="145" y="233" text-anchor="middle" fill="#fff">1</text><text class="label" x="235" y="625" text-anchor="middle"><tspan x="235" dy="0">Konfiguration</tspan></text><text class="small" x="235" y="670" text-anchor="middle"><tspan x="235" dy="0">Eingaben setzen</tspan></text><line x1="387" y1="440" x2="445" y2="440" stroke="#2f4558" stroke-width="8" marker-end="url(#arrow)"/><rect x="150" y="280" width="170" height="230" rx="18" fill="#f6fbff" stroke="#2f4558" stroke-width="3"/><rect x="170" y="315" width="130" height="28" rx="8" fill="#dcecf6"/><text class="tiny" x="235" y="335" text-anchor="middle">AOI</text><rect x="170" y="365" width="130" height="28" rx="8" fill="#dcecf6"/><text class="tiny" x="235" y="385" text-anchor="middle">Zeitraum</text><rect x="170" y="415" width="130" height="28" rx="8" fill="#dcecf6"/><text class="tiny" x="235" y="435" text-anchor="middle">hot/cold</text><rect class="card soft" x="470" y="180" width="280" height="520" rx="28"/><circle cx="520" cy="220" r="34" fill="#4d8fc9"/><text class="label" x="520" y="233" text-anchor="middle" fill="#fff">2</text><text class="label" x="610" y="625" text-anchor="middle"><tspan x="610" dy="0">Technik</tspan></text><text class="small" x="610" y="670" text-anchor="middle"><tspan x="610" dy="0">Datenpaket</tspan><tspan x="610" dy="28">erzeugen</tspan></text><line x1="762" y1="440" x2="820" y2="440" stroke="#2f4558" stroke-width="8" marker-end="url(#arrow)"/><rect x="520" y="295" width="180" height="130" rx="18" fill="#263746"/><rect x="545" y="320" width="90" height="10" rx="5" fill="#84c4e0"/><rect x="545" y="345" width="102" height="10" rx="5" fill="#e88a58"/><rect x="545" y="370" width="114" height="10" rx="5" fill="#79bd70"/><rect x="545" y="395" width="126" height="10" rx="5" fill="#e8d17f"/><circle cx="675" cy="465" r="40" fill="#6dbb62" stroke="#2f4558" stroke-width="3"/><path d="M655 465 l15 15 l28 -35" fill="none" stroke="#fff" stroke-width="8" stroke-linecap="round"/><rect class="card soft" x="845" y="180" width="280" height="520" rx="28"/><circle cx="895" cy="220" r="34" fill="#4d8fc9"/><text class="label" x="895" y="233" text-anchor="middle" fill="#fff">3</text><text class="label" x="985" y="625" text-anchor="middle"><tspan x="985" dy="0">Unterricht</tspan></text><text class="small" x="985" y="670" text-anchor="middle"><tspan x="985" dy="0">Material einsetzen</tspan></text><line x1="1137" y1="440" x2="1195" y2="440" stroke="#2f4558" stroke-width="8" marker-end="url(#arrow)"/><rect x="875" y="398.1" width="234.0" height="62.400000000000006" rx="12" fill="#cbd7bd" stroke="#2f4558" stroke-width="2"/><rect x="890.6" y="335.7" width="32.76" height="62.400000000000006" fill="#b9c1c9" stroke="#2f4558" stroke-width="2"/><rect x="898.4" y="349.74" width="6.24" height="14.040000000000001" fill="#edf4f7"/><rect x="912.44" y="349.74" width="6.24" height="14.040000000000001" fill="#edf4f7"/><rect x="929.6" y="312.3" width="42.9" height="85.8" fill="#d6dde2" stroke="#2f4558" stroke-width="2"/><rect x="937.4" y="326.34000000000003" width="6.24" height="14.040000000000001" fill="#edf4f7"/><rect x="951.44" y="326.34000000000003" width="6.24" height="14.040000000000001" fill="#edf4f7"/><rect x="980.3" y="343.5" width="37.44" height="54.6" fill="#aeb9c3" stroke="#2f4558" stroke-width="2"/><rect x="988.1" y="357.54" width="6.24" height="14.040000000000001" fill="#edf4f7"/><rect x="1002.14" y="357.54" width="6.24" height="14.040000000000001" fill="#edf4f7"/><rect x="1034.9" y="324.0" width="49.92" height="74.10000000000001" fill="#c4ccd4" stroke="#2f4558" stroke-width="2"/><rect x="1042.7" y="338.04" width="6.24" height="14.040000000000001" fill="#edf4f7"/><rect x="1056.74" y="338.04" width="6.24" height="14.040000000000001" fill="#edf4f7"/><path d="M878.9 437.1 C945.2 402.0,1031.0 476.1,1109.0 429.3" fill="none" stroke="#687681" stroke-width="15.600000000000001"/><ellipse cx="1070.0" cy="437.1" rx="31.200000000000003" ry="17.94" fill="#62aad8" stroke="#2f4558" stroke-width="2"/><circle cx="956.9" cy="409.8" r="21.060000000000002" fill="#6dbb62" stroke="#2f4558" stroke-width="2"/><rect x="910" y="330" width="160" height="150" rx="14" fill="#ffffff" opacity="0.62" stroke="#2f4558" stroke-width="3"/><path d="M935 390 C975 345,1020 430,1060 365" fill="none" stroke="#ca3b38" stroke-width="8"/><circle cx="1035" cy="430" r="25" fill="none" stroke="#2f8a52" stroke-width="8"/><rect class="card soft" x="1220" y="180" width="280" height="520" rx="28"/><circle cx="1270" cy="220" r="34" fill="#4d8fc9"/><text class="label" x="1270" y="233" text-anchor="middle" fill="#fff">4</text><text class="label" x="1360" y="625" text-anchor="middle"><tspan x="1360" dy="0">Schülerseite</tspan></text><text class="small" x="1360" y="670" text-anchor="middle"><tspan x="1360" dy="0">Muster erklären</tspan></text><rect x="1258" y="285" width="205" height="165" rx="18" fill="#eef3f6" stroke="#2f4558" stroke-width="2"/><rect x="1258.0" y="285" width="42.0" height="165" fill="#2f70b7" opacity="0.88"/><rect x="1299.0" y="285" width="42.0" height="165" fill="#67a8cb" opacity="0.88"/><rect x="1340.0" y="285" width="42.0" height="165" fill="#d9cda6" opacity="0.88"/><rect x="1381.0" y="285" width="42.0" height="165" fill="#e98b58" opacity="0.88"/><rect x="1422.0" y="285" width="42.0" height="165" fill="#bf3342" opacity="0.88"/><path d="M1273 415 C1348 430,1408 490,1443 405" fill="none" stroke="#ffffff" stroke-width="12" opacity="0.45"/><rect x="1280" y="485" width="165" height="75" rx="14" fill="#fff" stroke="#2f4558" stroke-width="3"/><path d="M1305 535 l30 -35 l32 20 l42 -48" fill="none" stroke="#4d8fc9" stroke-width="8" stroke-linecap="round"/></svg>
