<svg xmlns="http://www.w3.org/2000/svg" width="1572" height="1001" viewBox="0 0 1572 1001">
<style>
.bg{fill:#eef3f6;}
.card{fill:#ffffff;stroke:#2f4558;stroke-width:3;}
.soft{filter:url(#shadow);}
.label{font-family:Arial, Helvetica, sans-serif;fill:#243647;font-size:36px;font-weight:700;}
.text{font-family:Arial, Helvetica, sans-serif;fill:#243647;font-size:28px;}
.small{font-family:Arial, Helvetica, sans-serif;fill:#5b6f83;font-size:22px;}
.tiny{font-family:Arial, Helvetica, sans-serif;fill:#5b6f83;font-size:18px;}
</style>
<defs>
<filter id="shadow" x="-20%" y="-20%" width="140%" height="140%"><feDropShadow dx="0" dy="10" stdDeviation="12" flood-color="#385060" flood-opacity="0.18"/></filter>
<marker id="arrow" markerWidth="16" markerHeight="16" refX="14" refY="8" orient="auto" markerUnits="strokeWidth"><path d="M0,0 L16,8 L0,16 z" fill="#2f4558"/></marker>
</defs>
<rect class="bg" width="1572" height="1001"/>
<rect class="card soft" x="140" y="200" width="250" height="460" rx="28"/><circle cx="185" cy="245" r="34" fill="#4d8fc9"/><text class="label" x="185" y="258" text-anchor="middle" fill="#fff">1</text><rect x="165" y="384.25" width="195.0" height="52.0" rx="12" fill="#cbd7bd" stroke="#2f4558" stroke-width="2"/><rect x="178.0" y="332.25" width="27.3" height="52.0" fill="#b9c1c9" stroke="#2f4558" stroke-width="2"/><rect x="184.5" y="343.95" width="5.2" height="11.700000000000001" fill="#edf4f7"/><rect x="196.2" y="343.95" width="5.2" height="11.700000000000001" fill="#edf4f7"/><rect x="210.5" y="312.75" width="35.75" height="71.5" fill="#d6dde2" stroke="#2f4558" stroke-width="2"/><rect x="217.0" y="324.45" width="5.2" height="11.700000000000001" fill="#edf4f7"/><rect x="228.7" y="324.45" width="5.2" height="11.700000000000001" fill="#edf4f7"/><rect x="252.75" y="338.75" width="31.200000000000003" height="45.5" fill="#aeb9c3" stroke="#2f4558" stroke-width="2"/><rect x="259.25" y="350.45" width="5.2" height="11.700000000000001" fill="#edf4f7"/><rect x="270.95" y="350.45" width="5.2" height="11.700000000000001" fill="#edf4f7"/><rect x="298.25" y="322.5" width="41.6" height="61.75" fill="#c4ccd4" stroke="#2f4558" stroke-width="2"/><rect x="304.75" y="334.2" width="5.2" height="11.700000000000001" fill="#edf4f7"/><rect x="316.45000000000005" y="334.2" width="5.2" height="11.700000000000001" fill="#edf4f7"/><path d="M168.25 416.75 C223.5 387.5,295.0 449.25,360.0 410.25" fill="none" stroke="#687681" stroke-width="13.0"/><ellipse cx="327.5" cy="416.75" rx="26.0" ry="14.950000000000001" fill="#62aad8" stroke="#2f4558" stroke-width="2"/><circle cx="233.25" cy="394.0" r="17.55" fill="#6dbb62" stroke="#2f4558" stroke-width="2"/><text class="label" x="265" y="540" text-anchor="middle"><tspan x="265" dy="0">Orientieren</tspan></text><text class="small" x="265" y="590" text-anchor="middle"><tspan x="265" dy="0">bekannte Orte</tspan><tspan x="265" dy="28">finden</tspan></text><line x1="400" y1="430" x2="485" y2="430" stroke="#2f4558" stroke-width="8" marker-end="url(#arrow)"/><rect class="card soft" x="495" y="200" width="250" height="460" rx="28"/><circle cx="540" cy="245" r="34" fill="#4d8fc9"/><text class="label" x="540" y="258" text-anchor="middle" fill="#fff">2</text><rect x="555" y="305" width="130" height="160" rx="16" fill="#fff" opacity="0.7" stroke="#2f4558" stroke-width="3"/><path d="M575 370 C605 335,645 410,675 350" fill="none" stroke="#c33" stroke-width="8"/><text class="label" x="620" y="540" text-anchor="middle"><tspan x="620" dy="0">Markieren</tspan></text><text class="small" x="620" y="590" text-anchor="middle"><tspan x="620" dy="0">Oberflächen auf</tspan><tspan x="620" dy="28">Folie</tspan></text><line x1="755" y1="430" x2="840" y2="430" stroke="#2f4558" stroke-width="8" marker-end="url(#arrow)"/><rect class="card soft" x="850" y="200" width="250" height="460" rx="28"/><circle cx="895" cy="245" r="34" fill="#4d8fc9"/><text class="label" x="895" y="258" text-anchor="middle" fill="#fff">3</text><rect x="885" y="320" width="180" height="135" rx="18" fill="#eef3f6" stroke="#2f4558" stroke-width="2"/><rect x="885.0" y="320" width="37.0" height="135" fill="#2f70b7" opacity="0.88"/><rect x="921.0" y="320" width="37.0" height="135" fill="#67a8cb" opacity="0.88"/><rect x="957.0" y="320" width="37.0" height="135" fill="#d9cda6" opacity="0.88"/><rect x="993.0" y="320" width="37.0" height="135" fill="#e98b58" opacity="0.88"/><rect x="1029.0" y="320" width="37.0" height="135" fill="#bf3342" opacity="0.88"/><path d="M900 420 C975 465,1035 525,1045 440" fill="none" stroke="#ffffff" stroke-width="12" opacity="0.45"/><text class="label" x="975" y="540" text-anchor="middle"><tspan x="975" dy="0">Überlagern</tspan></text><text class="small" x="975" y="590" text-anchor="middle"><tspan x="975" dy="0">Folie auf</tspan><tspan x="975" dy="28">LST-Karte</tspan></text><line x1="1110" y1="430" x2="1195" y2="430" stroke="#2f4558" stroke-width="8" marker-end="url(#arrow)"/><rect class="card soft" x="1205" y="200" width="250" height="460" rx="28"/><circle cx="1250" cy="245" r="34" fill="#4d8fc9"/><text class="label" x="1250" y="258" text-anchor="middle" fill="#fff">4</text><rect x="1260" y="320" width="150" height="130" rx="18" fill="#fff" stroke="#2f4558" stroke-width="3"/><path d="M1285 405 l35 -45 l30 25 l40 -55" fill="none" stroke="#2f8a52" stroke-width="8"/><text class="label" x="1330" y="540" text-anchor="middle"><tspan x="1330" dy="0">Begründen</tspan></text><text class="small" x="1330" y="590" text-anchor="middle"><tspan x="1330" dy="0">Muster und</tspan><tspan x="1330" dy="28">Prozesse</tspan></text></svg>
