<svg xmlns="http://www.w3.org/2000/svg" width="1572" height="1001" viewBox="0 0 1572 1001">
<style>
.bg{fill:#eef3f6;}
.card{fill:#ffffff;stroke:#2f4558;stroke-width:3;}
.soft{filter:url(#shadow);}
.label{font-family:Arial, Helvetica, sans-serif;fill:#243647;font-size:36px;font-weight:700;}
.text{font-family:Arial, Helvetica, sans-serif;fill:#243647;font-size:28px;}
.small{font-family:Arial, Helvetica, sans-serif;fill:#5b6f83;font-size:22px;}
.tiny{font-family:Arial, Helvetica, sans-serif;fill:#5b6f83;font-size:18px;}
</style>
<defs>
<filter id="shadow" x="-20%" y="-20%" width="140%" height="140%"><feDropShadow dx="0" dy="10" stdDeviation="12" flood-color="#385060" flood-opacity="0.18"/></filter>
<marker id="arrow" markerWidth="16" markerHeight="16" refX="14" refY="8" orient="auto" markerUnits="strokeWidth"><path d="M0,0 L16,8 L0,16 z" fill="#2f4558"/></marker>
</defs>
<rect class="bg" width="1572" height="1001"/>
<rect class="card soft" x="110" y="170" width="220" height="180" rx="28" fill="#dbeef7"/><text class="label" x="220" y="265" text-anchor="middle"><tspan x="220" dy="0">AOI</tspan></text><rect class="card soft" x="390" y="170" width="220" height="180" rx="28" fill="#e6edf2"/><text class="label" x="500" y="265" text-anchor="middle"><tspan x="500" dy="0">STAC</tspan></text><rect class="card soft" x="670" y="170" width="220" height="180" rx="28" fill="#e6edf2"/><text class="label" x="780" y="265" text-anchor="middle"><tspan x="780" dy="0">Landsat</tspan></text><rect class="card soft" x="950" y="170" width="220" height="180" rx="28" fill="#e9d7c5"/><text class="label" x="1060" y="265" text-anchor="middle"><tspan x="1060" dy="0">QA / LST</tspan></text><rect class="card soft" x="1230" y="170" width="220" height="180" rx="28" fill="#eadfc7"/><text class="label" x="1340" y="265" text-anchor="middle"><tspan x="1340" dy="0">Extreme</tspan></text><rect class="card soft" x="390" y="575" width="220" height="180" rx="28" fill="#dcead5"/><text class="label" x="500" y="670" text-anchor="middle"><tspan x="500" dy="0">Teaching Layer</tspan></text><rect class="card soft" x="670" y="575" width="220" height="180" rx="28" fill="#dcead5"/><text class="label" x="780" y="670" text-anchor="middle"><tspan x="780" dy="0">QGIS-Projekt</tspan></text><rect class="card soft" x="950" y="575" width="220" height="180" rx="28" fill="#e6edf2"/><text class="label" x="1060" y="670" text-anchor="middle"><tspan x="1060" dy="0">Ausdrucke</tspan></text><line x1="330" y1="260" x2="385" y2="260" stroke="#2f4558" stroke-width="7" marker-end="url(#arrow)"/><line x1="610" y1="260" x2="665" y2="260" stroke="#2f4558" stroke-width="7" marker-end="url(#arrow)"/><line x1="890" y1="260" x2="945" y2="260" stroke="#2f4558" stroke-width="7" marker-end="url(#arrow)"/><line x1="1170" y1="260" x2="1225" y2="260" stroke="#2f4558" stroke-width="7" marker-end="url(#arrow)"/><line x1="1340" y1="360" x2="1120" y2="575" stroke="#2f4558" stroke-width="7" marker-end="url(#arrow)"/><line x1="950" y1="665" x2="895" y2="665" stroke="#2f4558" stroke-width="7" marker-end="url(#arrow)"/><line x1="670" y1="665" x2="615" y2="665" stroke="#2f4558" stroke-width="7" marker-end="url(#arrow)"/><path d="M1230 360 C1200 520 1060 555 1060 575" fill="none" stroke="#2f4558" stroke-width="7" marker-end="url(#arrow)"/><rect class="card soft" x="160" y="820" width="1250" height="80" rx="24"/><text class="text" x="785" y="872" text-anchor="middle">lokale Wiederverwendung: vorhandene Dateien werden gelesen, nicht erneut geladen</text></svg>
