<svg xmlns="http://www.w3.org/2000/svg" width="1600" height="900" viewBox="0 0 1600 900">
  <defs>
    <filter id="shadow" x="-20%" y="-20%" width="140%" height="150%">
      <feDropShadow dx="0" dy="8" stdDeviation="8" flood-color="#17324a" flood-opacity="0.16"/>
    </filter>
    <marker id="arrow" viewBox="0 0 10 10" refX="9" refY="5" markerWidth="10" markerHeight="10" orient="auto-start-reverse">
      <path d="M 0 0 L 10 5 L 0 10 z" fill="#073c66"/>
    </marker>
    <linearGradient id="lst" x1="0" x2="1" y1="0" y2="0">
      <stop offset="0" stop-color="#06479b"/><stop offset="0.25" stop-color="#37a2cf"/><stop offset="0.5" stop-color="#f1df64"/><stop offset="0.75" stop-color="#f07a24"/><stop offset="1" stop-color="#bd1f2d"/>
    </linearGradient>
    <style>
      .bg { fill: #ffffff; }
      .card { fill: #ffffff; stroke: #88a8bf; stroke-width: 2.2; filter: url(#shadow); }
      .soft { fill: #f7fafc; stroke: #9fb6c8; stroke-width: 1.7; }
      .label { font-family: Arial, Helvetica, sans-serif; font-size: 34px; font-weight: 700; fill: #17324a; }
      .small { font-family: Arial, Helvetica, sans-serif; font-size: 24px; fill: #17324a; }
      .tiny { font-family: Arial, Helvetica, sans-serif; font-size: 18px; fill: #607282; }
      .num { font-family: Arial, Helvetica, sans-serif; font-size: 46px; font-weight: 800; fill: white; }
      .axis { stroke: #073c66; stroke-width: 4; fill: none; }
      .arrow { stroke: #073c66; stroke-width: 8; fill: none; marker-end: url(#arrow); }
      .thin { stroke: #6b8497; stroke-width: 2; fill: none; }
    </style>
  </defs>
  <rect class="bg" width="1600" height="900"/>
<rect class="card" x="70" y="250" width="300" height="300" rx="24"/><circle cx="112" cy="250" r="38" fill="#073c66"/><text class="num" x="112" y="266" text-anchor="middle">1</text><text class="label" x="220" y="475" text-anchor="middle">Theorie</text><text class="small" x="220" y="515" text-anchor="middle">Energiehaushalt</text><path class="arrow" d="M 388 400 L 427 400"/><rect class="card" x="455" y="250" width="300" height="300" rx="24"/><circle cx="497" cy="250" r="38" fill="#073c66"/><text class="num" x="497" y="266" text-anchor="middle">2</text><text class="label" x="605" y="475" text-anchor="middle">Messdaten</text><text class="small" x="605" y="515" text-anchor="middle">Station + Zeitreihe</text><path class="arrow" d="M 773 400 L 812 400"/><rect class="card" x="840" y="250" width="300" height="300" rx="24"/><circle cx="882" cy="250" r="38" fill="#073c66"/><text class="num" x="882" y="266" text-anchor="middle">3</text><text class="label" x="990" y="475" text-anchor="middle">fieldClim</text><text class="small" x="990" y="515" text-anchor="middle">Objekt + Funktionen</text><path class="arrow" d="M 1158 400 L 1197 400"/><rect class="card" x="1225" y="250" width="300" height="300" rx="24"/><circle cx="1267" cy="250" r="38" fill="#073c66"/><text class="num" x="1267" y="266" text-anchor="middle">4</text><text class="label" x="1375" y="475" text-anchor="middle">Deutung</text><text class="small" x="1375" y="515" text-anchor="middle">Aussagegrenzen</text><circle cx="220" cy="335" r="45" fill="#f4d05c" stroke="#ef9a34" stroke-width="4"/><path d="M220 280 L220 235 M220 435 L220 390 M165 335 L120 335 M320 335 L275 335 M182 297 L150 265 M258 373 L290 405 M258 297 L290 265 M182 373 L150 405" stroke="#ef9a34" stroke-width="5"/><rect x="180" y="365" width="85" height="36" rx="6" fill="url(#lst)" opacity="0.85"/><rect x="540" y="300" width="125" height="150" rx="8" fill="#f0f5f8" stroke="#1d4f7a" stroke-width="3"/><line x1="560" y1="330" x2="640" y2="330" stroke="#0E87CC" stroke-width="5"/><line x1="560" y1="365" x2="640" y2="365" stroke="#0E87CC" stroke-width="5"/><line x1="560" y1="400" x2="640" y2="400" stroke="#0E87CC" stroke-width="5"/><line x1="585" y1="450" x2="585" y2="292" stroke="#073c66" stroke-width="4"/><circle cx="585" cy="292" r="10" fill="#073c66"/><circle cx="585" cy="450" r="10" fill="#073c66"/><rect x="915" y="310" width="150" height="100" rx="16" fill="#eaf3fa" stroke="#1d4f7a" stroke-width="3"/><text class="small" x="990" y="370" text-anchor="middle">ws</text><circle cx="1040" cy="305" r="30" fill="#6aa35e" opacity="0.9"/><path d="M1028 305 L1038 316 L1055 292" stroke="white" stroke-width="6" fill="none"/><path d="M915 440 L1065 440" stroke="#073c66" stroke-width="5"/><circle cx="945" cy="440" r="10" fill="#0E87CC"/><circle cx="990" cy="440" r="10" fill="#0E87CC"/><circle cx="1035" cy="440" r="10" fill="#0E87CC"/><rect x="1295" y="305" width="120" height="90" rx="12" fill="#eef3f6" stroke="#1d4f7a" stroke-width="3"/><path d="M1315 370 L1340 345 L1365 360 L1395 325" stroke="#6aa35e" stroke-width="6" fill="none"/><rect x="1305" y="425" width="135" height="50" rx="10" fill="url(#lst)" opacity="0.85"/><text class="tiny" x="103" y="650">Anwendungstransfer: bekannte Theorie wird in prüfbare R-Schritte übersetzt.</text>
</svg>