<svg xmlns="http://www.w3.org/2000/svg" width="1572" height="1001" viewBox="0 0 1572 1001">
<style>
.bg{fill:#eef3f6;}
.card{fill:#ffffff;stroke:#2f4558;stroke-width:3;}
.soft{filter:url(#shadow);}
.label{font-family:Arial, Helvetica, sans-serif;fill:#243647;font-size:36px;font-weight:700;}
.text{font-family:Arial, Helvetica, sans-serif;fill:#243647;font-size:28px;}
.small{font-family:Arial, Helvetica, sans-serif;fill:#5b6f83;font-size:22px;}
.tiny{font-family:Arial, Helvetica, sans-serif;fill:#5b6f83;font-size:18px;}
</style>
<defs>
<filter id="shadow" x="-20%" y="-20%" width="140%" height="140%"><feDropShadow dx="0" dy="10" stdDeviation="12" flood-color="#385060" flood-opacity="0.18"/></filter>
<marker id="arrow" markerWidth="16" markerHeight="16" refX="14" refY="8" orient="auto" markerUnits="strokeWidth"><path d="M0,0 L16,8 L0,16 z" fill="#2f4558"/></marker>
</defs>
<rect class="bg" width="1572" height="1001"/>
<rect class="card soft" x="100" y="160" width="360" height="360" rx="28"/><rect x="130" y="375.0" width="300.0" height="80.0" rx="12" fill="#cbd7bd" stroke="#2f4558" stroke-width="2"/><rect x="150.0" y="295.0" width="42.0" height="80.0" fill="#b9c1c9" stroke="#2f4558" stroke-width="2"/><rect x="160.0" y="313.0" width="8.0" height="18.0" fill="#edf4f7"/><rect x="178.0" y="313.0" width="8.0" height="18.0" fill="#edf4f7"/><rect x="200.0" y="265.0" width="55.0" height="110.0" fill="#d6dde2" stroke="#2f4558" stroke-width="2"/><rect x="210.0" y="283.0" width="8.0" height="18.0" fill="#edf4f7"/><rect x="228.0" y="283.0" width="8.0" height="18.0" fill="#edf4f7"/><rect x="265.0" y="305.0" width="48.0" height="70.0" fill="#aeb9c3" stroke="#2f4558" stroke-width="2"/><rect x="275.0" y="323.0" width="8.0" height="18.0" fill="#edf4f7"/><rect x="293.0" y="323.0" width="8.0" height="18.0" fill="#edf4f7"/><rect x="335.0" y="280.0" width="64.0" height="95.0" fill="#c4ccd4" stroke="#2f4558" stroke-width="2"/><rect x="345.0" y="298.0" width="8.0" height="18.0" fill="#edf4f7"/><rect x="363.0" y="298.0" width="8.0" height="18.0" fill="#edf4f7"/><path d="M135.0 425.0 C220.0 380.0,330.0 475.0,430.0 415.0" fill="none" stroke="#687681" stroke-width="20.0"/><ellipse cx="380.0" cy="425.0" rx="40.0" ry="23.0" fill="#62aad8" stroke="#2f4558" stroke-width="2"/><circle cx="235.0" cy="390.0" r="27.0" fill="#6dbb62" stroke="#2f4558" stroke-width="2"/><text class="label" x="280" y="555" text-anchor="middle"><tspan x="280" dy="0">Luftbild</tspan></text><rect class="card soft" x="605" y="160" width="360" height="360" rx="28"/><rect x="675" y="235" width="220" height="210" rx="20" fill="#fff" opacity="0.75" stroke="#2f4558" stroke-width="4"/><path d="M710 345 C760 290,825 395,880 315" fill="none" stroke="#d64b43" stroke-width="10"/><circle cx="815" cy="380" r="38" fill="none" stroke="#2f8a52" stroke-width="10"/><text class="label" x="785" y="555" text-anchor="middle"><tspan x="785" dy="0">Folie</tspan></text><rect class="card soft" x="1110" y="160" width="360" height="360" rx="28"/><rect x="1145" y="240" width="290" height="220" rx="18" fill="#eef3f6" stroke="#2f4558" stroke-width="2"/><rect x="1145.0" y="240" width="59.0" height="220" fill="#2f70b7" opacity="0.88"/><rect x="1203.0" y="240" width="59.0" height="220" fill="#67a8cb" opacity="0.88"/><rect x="1261.0" y="240" width="59.0" height="220" fill="#d9cda6" opacity="0.88"/><rect x="1319.0" y="240" width="59.0" height="220" fill="#e98b58" opacity="0.88"/><rect x="1377.0" y="240" width="59.0" height="220" fill="#bf3342" opacity="0.88"/><path d="M1160 425 C1235 385,1295 445,1415 360" fill="none" stroke="#ffffff" stroke-width="12" opacity="0.45"/><text class="label" x="1290" y="555" text-anchor="middle"><tspan x="1290" dy="0">LST-Karte</tspan></text><line x1="465" y1="340" x2="600" y2="340" stroke="#2f4558" stroke-width="9" marker-end="url(#arrow)"/><line x1="970" y1="340" x2="1105" y2="340" stroke="#2f4558" stroke-width="9" marker-end="url(#arrow)"/><rect class="card soft" x="360" y="710" width="850" height="145" rx="32"/><text class="text" x="785" y="770" text-anchor="middle">aus sichtbaren Oberflächen werden begründete Temperaturmuster</text><text class="small" x="785" y="815" text-anchor="middle">sehen · markieren · vergleichen · erklären</text></svg>
