<svg xmlns="http://www.w3.org/2000/svg" width="1600" height="900" viewBox="0 0 1600 900">
  <defs>
    <filter id="shadow" x="-20%" y="-20%" width="140%" height="150%">
      <feDropShadow dx="0" dy="8" stdDeviation="8" flood-color="#17324a" flood-opacity="0.16"/>
    </filter>
    <marker id="arrow" viewBox="0 0 10 10" refX="9" refY="5" markerWidth="10" markerHeight="10" orient="auto-start-reverse">
      <path d="M 0 0 L 10 5 L 0 10 z" fill="#073c66"/>
    </marker>
    <linearGradient id="lst" x1="0" x2="1" y1="0" y2="0">
      <stop offset="0" stop-color="#06479b"/><stop offset="0.25" stop-color="#37a2cf"/><stop offset="0.5" stop-color="#f1df64"/><stop offset="0.75" stop-color="#f07a24"/><stop offset="1" stop-color="#bd1f2d"/>
    </linearGradient>
    <style>
      .bg { fill: #ffffff; }
      .card { fill: #ffffff; stroke: #88a8bf; stroke-width: 2.2; filter: url(#shadow); }
      .soft { fill: #f7fafc; stroke: #9fb6c8; stroke-width: 1.7; }
      .label { font-family: Arial, Helvetica, sans-serif; font-size: 34px; font-weight: 700; fill: #17324a; }
      .small { font-family: Arial, Helvetica, sans-serif; font-size: 24px; fill: #17324a; }
      .tiny { font-family: Arial, Helvetica, sans-serif; font-size: 18px; fill: #607282; }
      .num { font-family: Arial, Helvetica, sans-serif; font-size: 46px; font-weight: 800; fill: white; }
      .axis { stroke: #073c66; stroke-width: 4; fill: none; }
      .arrow { stroke: #073c66; stroke-width: 8; fill: none; marker-end: url(#arrow); }
      .thin { stroke: #6b8497; stroke-width: 2; fill: none; }
    </style>
  </defs>
  <rect class="bg" width="1600" height="900"/>
<rect x="0" y="575" width="1600" height="325" fill="#e9f3df"/><path d="M0 635 C220 565, 380 650, 590 600 C820 545, 970 625, 1180 570 C1360 520, 1480 580, 1600 540 L1600 900 L0 900 Z" fill="#cfe7bd"/><path d="M0 755 C220 705, 360 775, 600 730 C850 680, 1050 740, 1300 700 C1450 680, 1520 705, 1600 690 L1600 900 L0 900 Z" fill="#a9cf91"/><line x1="420" y1="615" x2="420" y2="170" stroke="#5b6670" stroke-width="8"/><line x1="420" y1="380" x2="310" y2="520" stroke="#5b6670" stroke-width="3"/><line x1="420" y1="380" x2="520" y2="540" stroke="#5b6670" stroke-width="3"/><line x1="360" y1="250" x2="480" y2="250" stroke="#5b6670" stroke-width="6"/><line x1="360" y1="480" x2="480" y2="480" stroke="#5b6670" stroke-width="6"/><circle cx="340" cy="250" r="18" fill="#073c66"/><circle cx="420" cy="250" r="18" fill="#fff" stroke="#073c66" stroke-width="4"/><circle cx="335" cy="480" r="20" fill="#fff" stroke="#073c66" stroke-width="4"/><text class="label" x="170" y="260">10 m</text><text class="label" x="180" y="490">2 m</text><line x1="250" y1="250" x2="330" y2="250" stroke="#073c66" stroke-width="4" stroke-dasharray="8 8"/><line x1="250" y1="480" x2="330" y2="480" stroke="#073c66" stroke-width="4" stroke-dasharray="8 8"/><rect class="card" x="665" y="180" width="340" height="420" rx="22"/><text class="label" x="835" y="245" text-anchor="middle">Stationsdatei</text><rect x="710" y="281" width="250" height="30" rx="6" fill="#edf4f8" stroke="#c6d7e3"/><text class="tiny" x="735" y="302">datetime</text><rect x="710" y="323" width="250" height="30" rx="6" fill="#edf4f8" stroke="#c6d7e3"/><text class="tiny" x="735" y="344">Ta_2m</text><rect x="710" y="365" width="250" height="30" rx="6" fill="#edf4f8" stroke="#c6d7e3"/><text class="tiny" x="735" y="386">RH_2m</text><rect x="710" y="407" width="250" height="30" rx="6" fill="#edf4f8" stroke="#c6d7e3"/><text class="tiny" x="735" y="428">wind_10m</text><rect x="710" y="449" width="250" height="30" rx="6" fill="#edf4f8" stroke="#c6d7e3"/><text class="tiny" x="735" y="470">Q*</text><rect x="710" y="491" width="250" height="30" rx="6" fill="#edf4f8" stroke="#c6d7e3"/><text class="tiny" x="735" y="512">B</text><path class="arrow" d="M 1005 390 C 1070 390, 1090 390, 1145 390"/><rect class="card" x="1155" y="180" width="360" height="420" rx="22"/><text class="label" x="1335" y="245" text-anchor="middle">weather_station</text><rect x="1230" y="310" width="210" height="40" rx="8" fill="#eaf3fa" stroke="#1d4f7a" stroke-width="2"/><rect x="1230" y="358" width="210" height="40" rx="8" fill="#dfeeda" stroke="#1d4f7a" stroke-width="2"/><rect x="1230" y="406" width="210" height="40" rx="8" fill="#fff4d6" stroke="#1d4f7a" stroke-width="2"/><rect x="1230" y="454" width="210" height="40" rx="8" fill="#eef3f6" stroke="#1d4f7a" stroke-width="2"/><text class="small" x="1335" y="338" text-anchor="middle">Ort</text><text class="small" x="1335" y="386" text-anchor="middle">Messhöhen</text><text class="small" x="1335" y="434" text-anchor="middle">Zeitreihe</text><text class="small" x="1335" y="482" text-anchor="middle">Rollen</text><text class="tiny" x="725" y="665">Die Tabelle bleibt Datenquelle; das Objekt bündelt fachliche Rollen.</text>
</svg>